<?xml version="1.0" encoding="utf-8"?>
<!-- Generator: Adobe Illustrator 27.2.0, SVG Export Plug-In . SVG Version: 6.00 Build 0)  -->
<svg version="1.1" id="Layer_1" xmlns="http://www.w3.org/2000/svg" xmlns:xlink="http://www.w3.org/1999/xlink" x="0px" y="0px"
	 viewBox="0 0 512 512" style="enable-background:new 0 0 512 512;" xml:space="preserve">
<style type="text/css">
	.st0{fill:#118315;}
</style>
<g>
	<path class="st0" d="M149.33,199.11c-11.78,0-21.33,9.55-21.33,21.33c0,11.78,9.55,21.33,21.33,21.33s21.33-9.55,21.33-21.33
		C170.67,208.66,161.12,199.11,149.33,199.11z M128,376.89c0-11.78,9.55-21.33,21.33-21.33s21.33,9.55,21.33,21.33
		c0,11.78-9.55,21.33-21.33,21.33S128,388.67,128,376.89z M0,92.44C0,41.39,41.39,0,92.44,0h327.11C470.61,0,512,41.39,512,92.44
		v327.11c0,51.06-41.39,92.44-92.44,92.44H92.44C41.39,512,0,470.61,0,419.56V92.44z M85.33,220.44c0,35.35,28.65,64,64,64
		s64-28.65,64-64c0-35.35-28.65-64-64-64S85.33,185.1,85.33,220.44z M149.33,312.89c-35.35,0-64,28.66-64,64c0,35.35,28.65,64,64,64
		s64-28.65,64-64C213.33,341.54,184.68,312.89,149.33,312.89z M256,220.44c0,11.78,9.55,21.33,21.33,21.33h128
		c11.78,0,21.33-9.55,21.33-21.33c0-11.78-9.55-21.33-21.33-21.33h-128C265.55,199.11,256,208.66,256,220.44z M277.33,355.56
		c-11.78,0-21.33,9.55-21.33,21.33c0,11.78,9.55,21.33,21.33,21.33h128c11.78,0,21.33-9.55,21.33-21.33
		c0-11.78-9.55-21.33-21.33-21.33H277.33z M85.33,92.44c0,11.78,9.55,21.33,21.33,21.33h298.67c11.78,0,21.33-9.55,21.33-21.33
		s-9.55-21.33-21.33-21.33H106.67C94.88,71.11,85.33,80.66,85.33,92.44z"/>
</g>
</svg>
